#!OML:ASF Y:\EmotionMaleHayes\Project 1\Capture day 1\Session 1\Male1.ASF
:FULLY-SPECIFIED
:DEGREES
2913
root -28.3019 17.0965 1.28448 1116.78 442.185 761.183
lowerback 7.68461 0.034169 -6.35349
upperback 0.583005 -0.467087 0.371778
thorax -3.65468 -0.120329 4.01192
lowerneck -22.2238 4.15619 5.87877
upperneck 19.3635 4.98779 -4.72056
head 10.1084 2.19479 -1.87819
rclavicle 4.05334e-015 1.19271e-015
rhumerus -41.6874 1.73326 -80.2911
rradius 35.9639
rwrist 0.207137
rhand -6.5303 -33.3799
rfingers 7.12502
rthumb 19.3225 -62.44
lclavicle 4.05334e-015 1.19271e-015
lhumerus -21.4471 -20.0109 86.9278
lradius 43.6351
lwrist 3.62294
lhand -14.5183 -25.1012
lfingers 7.12502
lthumb 11.6293 4.55611
rfemur 7.26536 1.76112 6.4099
rtibia 13.8547
rfoot -13.5894 16.1277
rtoes 6.75645
lfemur 15.0834 2.87801 -21.9617
ltibia -1.89006
lfoot -11.3485 11.9709
ltoes -2.72421
2914
root -28.3173 17.0906 1.26591 1118.39 442.155 762.788
lowerback 7.85073 -0.0210995 -6.66091
upperback 0.559642 -0.580989 0.335724
thorax -3.75663 -0.167704 4.16186
lowerneck -22.1874 4.22871 5.96923
upperneck 19.353 5.08856 -4.83376
head 10.11 2.23515 -1.91784
rclavicle 9.6659e-015 -1.11319e-014
rhumerus -41.5928 1.76456 -80.3379
rradius 35.8208
rwrist 0.287003
rhand -6.40297 -33.5414
rfingers 7.12502
rthumb 19.4449 -62.5891
lclavicle 9.6659e-015 -1.11319e-014
lhumerus -21.8262 -19.9589 87.3967
lradius 43.6362
lwrist 3.43578
lhand -14.5743 -25.2383
lfingers 7.12502
lthumb 11.5753 4.42207
rfemur 7.10673 1.41593 6.09052
rtibia 14.085
rfoot -13.9713 15.5194
rtoes 5.69254
lfemur 14.9158 3.18039 -22.0986
ltibia -1.71794
lfoot -11.2505 11.4951
ltoes -2.48642
2915
root -28.322 17.0918 1.24135 1116.91 442.214 761.388
lowerback 8.04081 -0.0324121 -6.4623
upperback 0.567213 -0.590546 0.371701
thorax -3.85557 -0.17219 4.09081
lowerneck -22.163 4.26415 5.88836
upperneck 19.3661 5.15265 -4.77367
head 10.11 2.26629 -1.87351
rclavicle -9.79636e-015 1.39149e-014
rhumerus -41.5995 1.85042 -80.4613
rradius 35.7832
rwrist 0.183739
rhand -6.35544 -33.5123
rfingers 7.12502
rthumb 19.4906 -62.5554
lclavicle -9.79636e-015 1.39149e-014
lhumerus -22.2313 -19.8615 87.9222
lradius 43.4821
lwrist 3.08252
lhand -14.6265 -25.4553
lfingers 7.12502
lthumb 11.525 4.20788
rfemur 7.09469 1.30145 6.25994
rtibia 14.2152
rfoot -14.2496 14.945
rtoes 4.97665
lfemur 15.014 3.50205 -21.8249
ltibia -1.72543
lfoot -11.1653 11.2595
ltoes -2.77275
2916
root -28.3245 17.095 1.21517 1114.89 442.122 759.332
lowerback 8.03261 0.0221155 -6.23685
upperback 0.568912 -0.497469 0.36886
thorax -3.86192 -0.129853 3.95016
lowerneck -22.3243 4.3209 5.88167
upperneck 19.5105 5.21221 -4.69872
head 10.1921 2.29935 -1.83488
rclavicle 2.46058e-014 5.56597e-015
rhumerus -41.6328 1.74907 -80.5433
rradius 35.7296
rwrist 0.271616
rhand -6.3515 -33.4239
rfingers 7.12502
rthumb 19.4944 -62.4667
lclavicle 2.46058e-014 5.56597e-015
lhumerus -22.5955 -19.8004 88.4108
lradius 43.295
lwrist 2.69758
lhand -14.4097 -25.54
lfingers 7.12502
lthumb 11.734 4.11133
rfemur 6.91442 1.21177 6.40843
rtibia 14.2917
rfoot -14.3494 14.5279
rtoes 3.90262
lfemur 15.0556 3.60204 -21.7313
ltibia -1.87332
lfoot -11.1589 11.3148
ltoes -2.7812
2917
root -28.3245 17.0976 1.18872 1114.02 441.855 758.445
lowerback 7.98496 0.110938 -6.20062
upperback 0.592592 -0.374898 0.278438
thorax -3.82522 -0.0718444 3.82085
lowerneck -22.4019 4.36086 5.96548
upperneck 19.5355 5.23736 -4.70752
head 10.2193 2.31465 -1.84688
rclavicle 1.1455e-014 -1.23246e-014
rhumerus -41.6909 1.6584 -80.6497
rradius 35.7187
rwrist 0.414349
rhand -6.41996 -33.6771
rfingers 7.12502
rthumb 19.4286 -62.7264
lclavicle 1.1455e-014 -1.23246e-014
lhumerus -22.9024 -20.077 88.8179
lradius 43.1758
lwrist 2.70198
lhand -14.1966 -25.4313
lfingers 7.12502
lthumb 11.9396 4.20826
rfemur 6.70405 0.934467 6.20266
rtibia 14.4754
rfoot -14.3236 14.4157
rtoes 3.75456
lfemur 15.0135 4.22621 -21.7149
ltibia -1.82509
lfoot -11.0329 10.8744
ltoes -3.13166
2918
root -28.3265 17.0967 1.168 1112.79 441.747 757.233
lowerback 7.99833 0.174545 -6.12851
upperback 0.640502 -0.282333 0.284427
thorax -3.79319 -0.0289685 3.7761
lowerneck -22.3154 4.36014 5.91932
upperneck 19.3155 5.24025 -4.68845
head 10.1228 2.31574 -1.83262
rclavicle -3.87009e-015 1.94809e-014
rhumerus -41.6393 1.63383 -80.6943
rradius 35.6401
rwrist 0.481655
rhand -6.47936 -33.4918
rfingers 7.12502
rthumb 19.3715 -62.5469
lclavicle -3.87009e-015 1.94809e-014
lhumerus -23.1639 -20.6912 89.2829
lradius 43.0504
lwrist 3.00884
lhand -14.268 -25.4336
lfingers 7.12502
lthumb 11.8707 4.20993
rfemur 6.54691 0.621488 6.18751
rtibia 14.753
rfoot -14.3446 14.1828
rtoes 3.74791
lfemur 15.0015 4.84947 -21.4753
ltibia -1.75063
lfoot -10.9002 10.419
ltoes -3.63921
